<svg width="24" height="24" viewBox="0 0 24 24" fill="none" xmlns="http://www.w3.org/2000/svg">
<path d="M12.0049 18.5C8.41503 18.5 5.50488 15.5899 5.50488 12C5.50488 8.41015 8.41503 5.5 12.0049 5.5C14.1981 5.5 16.1375 6.5862 17.3147 8.25L15.1049 8.25C14.4145 8.25 13.8549 8.80964 13.8549 9.5C13.8549 10.1904 14.4145 10.75 15.1049 10.75L20.3549 10.75C20.6864 10.75 21.0043 10.6183 21.2388 10.3839C21.4732 10.1495 21.6049 9.83152 21.6049 9.5V4.25C21.6049 3.55964 21.0452 3 20.3549 3C19.6645 3 19.1049 3.55964 19.1049 4.25V6.46852C17.4579 4.35746 14.8899 3 12.0049 3C7.03432 3 3.00488 7.02944 3.00488 12C3.00488 16.9706 7.03432 21 12.0049 21C15.8447 21 19.1229 18.5953 20.4157 15.2097C20.6965 14.4742 20.1019 13.75 19.3145 13.75H19.2157C18.6547 13.75 18.1736 14.1299 17.9453 14.6423C16.9328 16.9154 14.6539 18.5 12.0049 18.5Z" fill="black"/>
</svg>
